<?xml version="1.0" encoding="utf-8"?>
<!-- Generator: Adobe Illustrator 16.0.0, SVG Export Plug-In . SVG Version: 6.00 Build 0)  -->
<!DOCTYPE svg PUBLIC "-//W3C//DTD SVG 1.1//EN" "http://www.w3.org/Graphics/SVG/1.1/DTD/svg11.dtd">
<svg version="1.1" xmlns="http://www.w3.org/2000/svg" xmlns:xlink="http://www.w3.org/1999/xlink" x="0px" y="0px" width="8000px"
	 height="4000px" viewBox="0 0 8000 4000" enable-background="new 0 0 8000 4000" xml:space="preserve">
<g id="Black_BG" display="none">
	<rect x="0.001" display="inline" width="8000.001" height="4000"/>
</g>
<g id="Rectangle">
</g>
<g id="iii">
</g>
<g id="Line">
</g>
<g id="V">
</g>
<g id="R">
</g>
<g id="Y">
</g>
<g id="_x221E_">
	<g display="none">
		<path display="inline" fill="#FFFFFF" d="M3965.461,1136.777l-425.711-737.55h79.723l381.027,660.466l381.049-660.466h79.7
			l-425.711,737.55v501.042h-70.077V1136.777z"/>
	</g>
	<g display="none">
		<path display="inline" fill="#FFAA00" d="M6965.747,2426.906c-109.433,0-220.655-69.965-340.852-222.45
			c-93.284,114.813-197.334,222.45-348.026,222.45c-152.485,0-287.031-118.401-287.031-292.414
			c0-175.808,130.959-297.796,301.384-297.796c141.723,0,252.946,104.049,344.438,224.243
			c82.521-102.255,182.982-224.243,342.645-224.243c161.456,0,279.855,114.813,279.855,288.825
			C7258.16,2294.154,7137.967,2426.906,6965.747,2426.906z M6576.459,2138.08c-78.933-98.667-166.837-213.48-294.207-213.48
			c-107.637,0-188.365,98.667-188.365,211.687c0,102.255,84.314,200.922,195.541,200.922
			C6406.034,2337.208,6504.701,2215.22,6576.459,2138.08z M6678.715,2129.109c120.193,138.135,200.922,208.099,292.413,208.099
			c111.226,0,182.983-111.225,182.983-202.716c0-121.989-84.316-209.893-188.364-209.893
			C6847.346,1924.6,6752.266,2051.971,6678.715,2129.109z"/>
	</g>
	<rect x="10307.247" y="3700.957" display="none" fill="#FFAA00" width="984.393" height="900.359"/>
</g>
<g id="Line_1_">
	<g>
		<rect x="250" y="249" fill="none" stroke="#FFFFFF" stroke-width="75" stroke-miterlimit="10" width="7500" height="3500"/>
		<g>
			<path fill="#FFFFFF" d="M7159.109,1516.987h72.432l-438.038,1219.266h-42.263l-438.039-1219.266h72.432l387.175,1095.097
				L7159.109,1516.987z"/>
		</g>
		<g>
			<path fill="#FFFFFF" d="M834.16,3157.366l-89.6,129.639l150.879,215.576h-23.682l-139.648-199.463L695,3356.341v146.24h-19.531
				v-345.215H695v165.283l115.479-165.283H834.16z"/>
			<path fill="#FFFFFF" d="M2403.35,3382.952h-64.453v119.629h-19.531v-345.215h90.576c26.367,3.582,48.744,14.568,67.139,32.959
				c21.973,22.137,32.959,48.668,32.959,79.59c0,31.25-10.986,57.861-32.959,79.834c-15.301,15.301-32.799,25.311-52.49,30.029
				l79.59,122.803h-23.926L2403.35,3382.952z M2338.896,3177.142v186.035h58.594c25.551,0,47.443-9.071,65.674-27.222
				c18.227-18.146,27.344-40.161,27.344-66.04c0-25.715-9.117-47.607-27.344-65.674c-18.23-18.066-40.123-27.1-65.674-27.1H2338.896
				z"/>
			<path fill="#FFFFFF" d="M5580.791,3504.778c-37.598,0-65.637-9.644-84.107-28.931c-18.475-19.287-27.709-43.171-27.709-71.655
				c0-28.32,9.846-53.059,29.541-74.219c13.672-14.648,30.842-25.391,51.514-32.227c-9.441-3.906-19.615-11.719-30.518-23.438
				c-10.906-11.719-16.357-27.832-16.357-48.34c0-20.02,7.117-37.025,21.361-51.025c14.24-13.996,33.326-21.076,57.252-21.24
				c22.461,0.164,40.852,7.244,55.176,21.24c14.32,14,21.484,31.006,21.484,51.025c0,20.508-5.494,36.621-16.48,48.34
				s-21.201,19.531-30.639,23.438c20.668,6.836,37.842,17.578,51.514,32.227c19.691,21.16,29.541,45.898,29.541,74.219
				c0,28.484-9.197,52.368-27.588,71.655C5646.381,3495.135,5618.389,3504.778,5580.791,3504.778z M5581.035,3486.468
				c31.738-1.465,54.848-9.804,69.336-25.024c14.484-15.217,21.729-34.302,21.729-57.251c0-22.785-7.813-42.725-23.438-59.814
				c-15.301-16.602-37.926-27.912-67.871-33.936c-30.113,6.023-52.818,17.334-68.115,33.936
				c-15.625,17.09-23.438,37.029-23.438,59.814c0,22.949,7.24,42.034,21.729,57.251
				C5525.451,3476.664,5548.809,3485.003,5581.035,3486.468z M5580.547,3173.235c-21.973,1.465-36.949,6.92-44.922,16.357
				c-7.977,9.441-11.963,21.568-11.963,36.377c0,14.648,5.004,27.306,15.014,37.964c10.01,10.662,24.049,18.841,42.115,24.536
				c17.902-5.695,31.859-13.874,41.869-24.536c10.01-10.658,15.016-23.315,15.016-37.964c0-14.809-3.949-26.936-11.842-36.377
				c-7.896-9.438-22.826-14.893-44.799-16.357H5580.547z"/>
			<path fill="#FFFFFF" d="M7350.908,3157.366h20.508l-124.023,345.215h-11.963l-124.023-345.215h20.508l109.619,310.059
				L7350.908,3157.366z"/>
		</g>
		
			<line fill="none" stroke="#FFFFFF" stroke-width="75" stroke-miterlimit="10" x1="573.906" y1="2960.86" x2="7452.852" y2="2960.86"/>
		<g>
			
				<line fill="none" stroke="#FFFFFF" stroke-width="75" stroke-miterlimit="10" x1="3982.104" y1="2625.595" x2="7452.852" y2="621.757"/>
			
				<line fill="none" stroke="#FFFFFF" stroke-width="75" stroke-miterlimit="10" x1="547.705" y1="621.757" x2="4018.453" y2="2625.595"/>
		</g>
		<g>
			<path fill="#FFFFFF" d="M1399.263,2321.882h-231.25v429.215h-70.076V1512.505h324.988
				c94.602,12.848,174.887,52.276,240.875,118.243c78.835,79.419,118.264,174.605,118.264,285.56
				c0,112.121-39.429,207.61-118.264,286.445c-54.893,54.893-117.68,90.818-188.318,107.731l285.559,440.612h-85.843
				L1399.263,2321.882z M1168.012,1583.446v667.474h210.228c91.683,0,170.236-32.551,235.641-97.652s98.106-144.089,98.106-236.96
				c0-92.268-32.702-170.8-98.106-235.62s-143.958-97.241-235.641-97.241H1168.012z"/>
		</g>
		<g>
			<path fill="#FFAA00" d="M4323.85,1401.374c-109.432,0-220.654-69.965-340.851-222.45
				c-93.284,114.813-197.334,222.45-348.026,222.45c-152.485,0-287.031-118.401-287.031-292.414
				c0-175.808,130.959-297.796,301.384-297.796c141.723,0,252.946,104.049,344.438,224.243
				c82.521-102.255,182.982-224.243,342.645-224.243c161.456,0,279.855,114.813,279.855,288.825
				C4616.264,1268.622,4496.07,1401.374,4323.85,1401.374z M3934.563,1112.547c-78.933-98.667-166.837-213.48-294.207-213.48
				c-107.637,0-188.365,98.667-188.365,211.687c0,102.255,84.314,200.922,195.541,200.922
				C3764.138,1311.675,3862.805,1189.687,3934.563,1112.547z M4036.818,1103.577c120.193,138.135,200.922,208.099,292.412,208.099
				c111.227,0,182.984-111.225,182.984-202.716c0-121.989-84.316-209.893-188.365-209.893
				C4205.449,899.067,4110.369,1026.438,4036.818,1103.577z"/>
		</g>
		<line fill="none" stroke="#FFFFFF" stroke-width="75" stroke-miterlimit="10" x1="4000" y1="2625.595" x2="4000" y2="3502.581"/>
	</g>
</g>
<g id="Guides">
</g>
</svg>
