<?xml version="1.0" encoding="utf-8"?>
<!-- Generator: Adobe Illustrator 16.0.0, SVG Export Plug-In . SVG Version: 6.00 Build 0)  -->
<!DOCTYPE svg PUBLIC "-//W3C//DTD SVG 1.1//EN" "http://www.w3.org/Graphics/SVG/1.1/DTD/svg11.dtd">
<svg version="1.1" id="Layer_1" xmlns="http://www.w3.org/2000/svg" xmlns:xlink="http://www.w3.org/1999/xlink" x="0px" y="0px"
	 width="256px" height="256px" viewBox="0 0 256 256" enable-background="new 0 0 256 256" xml:space="preserve">
<g>
	<linearGradient id="SVGID_1_" gradientUnits="userSpaceOnUse" x1="47.3584" y1="-11.6743" x2="208.6416" y2="267.6764">
		<stop  offset="0" style="stop-color:#414141"/>
		<stop  offset="0.4041" style="stop-color:#222222"/>
		<stop  offset="0.9143" style="stop-color:#040404"/>
	</linearGradient>
	<path fill="url(#SVGID_1_)" d="M253,227.115C253,241.411,241.411,253,227.115,253H28.885C14.589,253,3,241.411,3,227.115V28.885
		C3,14.589,14.589,3,28.885,3h198.23C241.411,3,253,14.589,253,28.885V227.115z"/>
	<g>
		<path fill="none" d="M36.707,128.772c0-19.028,13.289-35.691,31.204-36.427c-0.448-0.017-0.899-0.028-1.353-0.028
			c-18.536,0-32.439,16.992-32.439,36.456c0,17.609,14.52,34.601,33.675,34.601c0.43,0,0.859-0.009,1.286-0.028
			C50.573,162.596,36.707,145.98,36.707,128.772z"/>
		<path fill="none" d="M137.423,127.537c12.399-13.005,28.354-34.3,48.149-35.19c-0.434-0.018-0.869-0.03-1.307-0.03
			c-20.391,0-36.766,21.935-49.432,35.22c20.699,23.789,34.602,35.836,50.358,35.836c0.419,0,0.833-0.011,1.247-0.029
			C171.228,162.678,157.532,150.647,137.423,127.537z"/>
		<path fill="none" d="M69.254,92.421c-17.283,1.437-29.958,17.767-29.958,36.352c0,16.784,13.192,33.009,31.015,34.491
			c18.985-1.644,35.076-21.456,46.914-34.183C104.195,112.795,89.746,93.957,69.254,92.421z"/>
		<path fill="none" d="M186.913,92.43c-19.22,1.701-34.764,22.375-46.902,35.106c19.539,22.456,33.021,34.447,47.725,35.721
			c17.697-1.602,28.97-19.747,28.97-34.794C216.705,108.5,203.593,93.84,186.913,92.43z"/>
		<path fill="#FFAA00" d="M191.605,77.179c-0.426,0-0.849,0.005-1.269,0.015c27.127,0.616,46.875,20.234,46.875,49.725
			c0,28.578-20.044,51.17-48.944,51.885c0.391,0.01,0.783,0.018,1.174,0.018c29.659,0,50.358-22.862,50.358-51.903
			C239.8,96.951,219.41,77.179,191.605,77.179z"/>
		<path fill="#FFAA00" d="M234.623,126.918c0-29.491-19.747-49.108-46.875-49.725c-0.438-0.01-0.879-0.015-1.319-0.015
			c-25.815,0-42.644,18.518-56.366,35.355C114.796,93.25,96.394,77.179,73.279,77.179c-0.461,0-0.92,0.005-1.377,0.016
			c23.187,0.565,41.593,17.307,56.844,36.961c-0.445,0.55-0.887,1.098-1.326,1.642c-15.495-20.355-34.276-38.021-58.106-38.603
			c-0.403-0.01-0.807-0.016-1.211-0.016c-29.35,0-51.903,21.008-51.903,51.285c0,29.967,23.171,50.358,49.431,50.358
			c0.437,0,0.871-0.007,1.303-0.017c25.25-0.608,42.837-18.854,58.632-38.292c0.427,0.541,0.853,1.074,1.278,1.604
			c-15.46,18.827-32.767,36.097-57.322,36.688c0.427,0.011,0.856,0.017,1.285,0.017c24.553,0,41.915-16.592,57.319-35.125
			c19.723,24.05,38.072,35.125,56.139,35.125c0.473,0,0.944-0.007,1.413-0.018C214.579,178.089,234.623,155.496,234.623,126.918z
			 M67.793,163.373c-19.155,0-33.675-16.991-33.675-34.601c0-19.464,13.903-36.456,32.439-36.456c0.454,0,0.905,0.012,1.353,0.028
			c-17.915,0.736-31.204,17.399-31.204,36.427c0,17.208,13.866,33.823,32.373,34.572C68.652,163.364,68.224,163.373,67.793,163.373z
			 M70.311,163.264c-17.823-1.482-31.015-17.707-31.015-34.491c0-18.585,12.676-34.915,29.958-36.352
			c20.492,1.536,34.941,20.374,47.971,36.66C105.386,141.808,89.296,161.62,70.311,163.264z M185.192,163.373
			c-15.757,0-29.659-12.048-50.358-35.836c12.666-13.285,29.041-35.22,49.432-35.22c0.438,0,0.873,0.012,1.307,0.03
			c-19.796,0.89-35.75,22.185-48.149,35.19c20.109,23.111,33.805,35.141,49.017,35.807
			C186.025,163.362,185.611,163.373,185.192,163.373z M187.735,163.258c-14.703-1.274-28.186-13.266-47.725-35.721
			c12.139-12.731,27.683-33.405,46.902-35.106c16.68,1.41,29.792,16.07,29.792,36.033
			C216.705,143.511,205.433,161.656,187.735,163.258z"/>
	</g>
	<linearGradient id="SVGID_2_" gradientUnits="userSpaceOnUse" x1="176.2012" y1="144.8516" x2="93.9053" y2="13.6439">
		<stop  offset="0" style="stop-color:#FFFFFF"/>
		<stop  offset="0.094" style="stop-color:#FFFFFF;stop-opacity:0.906"/>
		<stop  offset="1" style="stop-color:#FFFFFF;stop-opacity:0"/>
	</linearGradient>
	<path opacity="0.5" fill="url(#SVGID_2_)" d="M163.377,119.573c37.127-13.872,67.966-35.676,89.623-61.061V28.885
		C253,14.589,241.411,3,227.115,3H28.885C14.589,3,3,14.589,3,28.885v85.689C44.075,138.119,104.301,141.646,163.377,119.573z"/>
</g>
</svg>
